# xmcd CD database file
# Copyright (C) 1993-1996 Ti Kan
#
# Track frame offsets:
#	182
#	12112
#	23020
#	34965
#	46610
#	59125
#	70550
#	81505
#	94065
#	102602
#	113612
#	118820
#	129137
#	140345
#	146540
#	152812
#	164342
#	177900
#	191517
#	205570
#	218460
#	231792
#
# Disc length: 3235 seconds
#
# Revision: 1
# Processed by: cddbd v1.4b41PL1 Copyright (c) Steve Scherf et al.
# Submitted via: CDValet v3.31 - Copyright (c) 1997 Greg Leichner
#
DISCID=260ca116
DTITLE=Hank Williams - Long Gone Lonesome Blues 
DYEAR=1900
DGENRE=
TTITLE0=Long Gone Lonesome Blues
TTITLE1=Why Don't You Love Me?
TTITLE2=Why Should We Try Anymore?
TTITLE3=My Son Calls Another Man Daddy
TTITLE4=They'll Never Take Her Love From Me
TTITLE5=Nobody's Lonesome For Me
TTITLE6=Moanin' The Blues
TTITLE7=Cold, Cold Heart
TTITLE8=I'm Gonna Sing
TTITLE9=The Prodigal Son
TTITLE10=Happy Rovin' Cowboy (Theme)
TTITLE11=There's No Room In My Heart For The Blues
TTITLE12=It Just Don't Matter Now
TTITLE13=Low Down Blues
TTITLE14=Last Night I Dreamed Of Heaven
TTITLE15=Something Got A Hold Of Me
TTITLE16=Too Many Parties And Too Many Pals
TTITLE17=Beyond The Sunset
TTITLE18=The Funeral
TTITLE19=Everything's Okay
TTITLE20=Help Me Understand
TTITLE21=No, No Joe
EXTD=
EXTT0=
EXTT1=
EXTT2=
EXTT3=
EXTT4=
EXTT5=
EXTT6=
EXTT7=
EXTT8=
EXTT9=
EXTT10=
EXTT11=
EXTT12=
EXTT13=
EXTT14=
EXTT15=
EXTT16=
EXTT17=
EXTT18=
EXTT19=
EXTT20=
EXTT21=
PLAYORDER=
